<svg width="588" height="124" viewBox="0 0 588 124" fill="none" xmlns="http://www.w3.org/2000/svg">
<g opacity="0.65">
<path d="M1553.82 221.799C1441.48 175.097 1317.82 140.727 1185.86 122.747C607.887 45.0951 -11.8179 315.949 -634.198 564.874L-635.927 575.25C-143.063 382.626 327.869 178.927 783.847 139.958C1068.48 115.542 1329.15 162.554 1549.08 250.219L1553.82 221.799Z" fill="white"/>
<path d="M-615.825 595.447C-202.847 458.743 198.214 312.016 591.822 254.458C939.28 204.198 1260.08 243.459 1534.39 338.336L1550.86 239.543C1133.01 102.654 601.836 132.334 40.7886 322.71C-184.482 399.522 -410.004 487.11 -635.251 571.19L-638.635 591.49L-615.8 595.297L-615.825 595.447Z" fill="white"/>
<path d="M-623.769 502.32L-626.802 520.515C-148.102 288.747 267.917 90.2672 617.336 -1.39453C209.148 99.1703 -205.471 303.138 -623.769 502.32Z" fill="white"/>
<path d="M1570.02 124.66C1204.14 1.07285 740.028 9.16793 248.72 179.487C-45.0134 281.669 -337.25 416.555 -631.064 546.078L-633.621 561.416C-322.931 434.397 -15.02 302.742 293.034 210.984C765.331 70.4148 1206.05 85.93 1555.2 212.602L1569.84 124.785L1570.02 124.66Z" fill="white"/>
<path d="M9.02822 245.55C301.262 125.5 595.57 32.8415 888.987 14.0639C769.297 16.984 646.475 33.1367 522.273 65.9052C350.693 111.485 179.987 174.057 9.02822 245.55Z" fill="white"/>
<path d="M1574.3 98.9469L1588.89 11.4316C1398.61 -64.1825 1171.11 -105.509 908.335 -77.9129C531.507 -37.6487 126.605 164.539 -306.621 386.578C164.566 160.976 613.511 -31.242 1035.27 -11.314C1233.51 -11.1851 1416.77 32.5017 1574.33 98.7966L1574.3 98.9469Z" fill="white"/>
</g>
</svg>
