<svg width="1229" height="242" viewBox="0 0 1229 242" fill="none" xmlns="http://www.w3.org/2000/svg">
<g clip-path="url(#clip0_2005_2280)">
<path d="M1450.84 168.605C1368.72 152.817 1280.7 146.905 1189.38 153.18C789.551 181.406 410.168 450.011 25.9308 704.23L26.2116 711.454C331.117 513.167 619.719 310.48 921.195 220.75C1109.37 164.678 1291.37 160.017 1451.61 188.393L1450.84 168.605Z" fill="#CF1F5F"/>
<path d="M42.5549 722.248C301.479 572.725 550.987 418.114 807.895 324.558C1034.76 242.341 1256.15 224.091 1453.99 249.747L1451.32 180.959C1151.01 147.016 797.628 240.966 446.518 447.235C305.593 530.307 165.999 620.667 26.1017 708.627L26.6509 722.762L42.5508 722.144L42.5549 722.248Z" fill="#E0E4F4"/>
<path d="M789.437 148.799C841.89 123.692 894.875 101.5 948.204 82.7549C896.991 99.3205 844.118 121.718 789.437 148.799Z" fill="#E0E4F4"/>
<path d="M24.2381 660.674L24.7304 673.343C314.651 450.682 567.019 259.155 789.437 148.799C528.703 273.332 278.042 468.358 24.2381 660.674Z" fill="#0D173A"/>
<path d="M1448.21 100.968C1184.74 68.7396 873.487 138.822 566.523 321.88C383.051 431.561 205.141 563.047 25.4222 691.142L25.8372 701.822C217.263 573.061 406.173 441.568 600.736 336.908C899.048 176.521 1197.84 125.588 1450.49 162.222L1448.11 101.077L1448.21 100.968Z" fill="#CF1F5F"/>
<path d="M414.395 399.724C594.37 278.225 779.555 174.873 974.429 121.372C894.276 140.006 813.858 167.983 734.825 207.335C625.688 261.908 519.505 327.796 414.395 399.724Z" fill="#E0E4F4"/>
<path d="M1448.45 107.041C1304.66 76.033 1144.59 76.1718 985.307 118.223C981.678 119.203 978.054 120.288 974.425 121.268C1138.88 82.9997 1301.95 84.4222 1448.54 109.554L1448.44 106.936L1448.45 107.041Z" fill="#E0E4F4"/>
<path d="M1447.51 83.0648L1445.15 22.1292C1306.54 -2.26417 1147.66 1.60319 974.642 56.7715C726.619 136.351 482.25 328.825 221.581 538.605C507.304 321.14 782.705 129.243 1069.36 83.9192C1202.8 56.3985 1332.23 60.2817 1447.51 82.9601L1447.51 83.0648Z" fill="#112655"/>
</g>
<defs>
<clipPath id="clip0_2005_2280">
<rect width="1444.63" height="666.501" fill="white" transform="translate(0.773438 56.8682) rotate(-2.22547)"/>
</clipPath>
</defs>
</svg>
