<svg width="958" height="587" viewBox="0 0 958 587" fill="none" xmlns="http://www.w3.org/2000/svg">
<path d="M1982.98 597.292C1848.36 544.132 1700.02 505.375 1541.55 485.702C847.441 400.808 99.7769 720.474 -650.891 1014.73L-653.071 1026.78C-58.6583 798.977 509.494 558.525 1058.07 509.254C1400.5 478.395 1713.44 530.588 1977 630.295L1982.98 597.292Z" fill="white"/>
<path d="M-628.942 1049.62C-131.078 887.339 352.555 713.533 826.362 643.24C1244.61 581.826 1629.94 624.506 1958.84 732.123L1979.6 617.364C1478.52 462.29 839.586 501.471 163.173 727.345C-108.422 818.47 -380.426 922.1 -652.063 1021.66L-656.329 1045.24L-628.91 1049.45L-628.942 1049.62Z" fill="white"/>
<path d="M855.823 355.8C954.753 331.524 1053.52 312.245 1151.61 298.782C1057.94 309.336 959.29 328.991 855.823 355.8Z" fill="white"/>
<path d="M-638.269 938.341L-642.085 959.358C-65.4442 687.725 435.664 455.051 855.823 346.2C365.059 465.845 -134.42 704.837 -638.269 938.341Z" fill="white"/>
<path d="M2002.65 485.524C1564.07 345.582 1006.14 359.106 413.955 560.852C59.9057 681.878 -292.662 840.788 -647.073 993.498L-650.295 1011.29C-275.624 861.335 95.7525 706.029 466.913 596.954C1035.96 429.85 1565.54 443.894 1983.99 587.559L2002.43 485.67L2002.65 485.524Z" fill="white"/>
<path d="M123.437 642.227C475.698 500.718 830.183 390.884 1182.88 366.542C1039.06 370.988 891.339 390.772 741.802 429.794C535.221 484.062 329.524 557.982 123.437 642.227Z" fill="white"/>
<path d="M2006.88 459.525L2025.26 358.005C1797.29 272.102 1524.26 226.255 1208.17 260.572C754.865 310.583 266.252 548.438 -256.597 809.545C311.911 543.972 853.363 317.273 1360.09 336.596C1598.35 334.975 1818.18 383.952 2006.91 459.35L2006.88 459.525Z" fill="white"/>
</svg>
