<svg width="342" height="220" viewBox="0 0 342 220" fill="none" xmlns="http://www.w3.org/2000/svg">
<path d="M-638.434 546.404L-642.085 568.31C-65.7444 289.268 435.131 50.3032 855.822 -60.055C364.375 61.0223 -134.814 306.594 -638.434 546.404Z" fill="white"/>
<path d="M2002.82 91.7113C1562.32 -57.0843 1003.54 -47.338 412.019 157.722C58.3722 280.745 -293.473 443.144 -647.216 599.087L-650.295 617.553C-276.233 464.626 94.4834 306.117 465.372 195.643C1034 26.4015 1564.62 45.0813 1984.99 197.59L2002.61 91.8622L2002.82 91.7113Z" fill="white"/>
<path d="M123.437 237.259C475.279 92.7221 829.617 -18.8358 1182.88 -41.4436C1038.78 -37.9279 890.906 -18.4804 741.369 20.972C534.792 75.849 329.267 151.183 123.437 237.259Z" fill="white"/>
<path d="M2007.99 60.7533L2025.55 -44.6127C1796.45 -135.65 1522.55 -185.406 1206.18 -152.181C752.487 -103.704 264.996 139.724 -256.596 407.054C310.699 135.435 851.217 -95.9905 1359.01 -71.9978C1597.68 -71.8427 1818.32 -19.2449 2008.02 60.5723L2007.99 60.7533Z" fill="white"/>
</svg>
