<svg width="465" height="145" viewBox="0 0 465 145" fill="none" xmlns="http://www.w3.org/2000/svg">
<path d="M-28.4648 4.30978C-6.58716 -32.6157 16.0493 -70.7845 16.0493 -118.738C16.0493 -166.691 -6.57099 -204.876 -28.4486 -241.785L-26.3658 -243.012C-4.32671 -205.812 18.4712 -167.353 18.4712 -118.721C18.4712 -70.0902 -4.32672 -31.6308 -26.3658 5.55304L-28.4486 4.32594L-28.4648 4.30978Z" fill="#EBF1FB"/>
<path d="M-28.4813 32.4844C-23.2824 22.9745 -17.6636 13.4808 -12.2063 4.31C9.67126 -32.5994 32.3077 -70.7843 32.3077 -118.737C32.3077 -166.691 9.68741 -204.875 -12.2063 -241.801C-17.6475 -250.988 -23.2662 -260.466 -28.4813 -269.975L-26.3501 -271.138C-21.1673 -261.66 -15.5485 -252.199 -10.1235 -243.028C11.9317 -205.828 34.7296 -167.369 34.7296 -118.737C34.7296 -70.1062 11.9317 -31.6468 -10.1074 5.55319C-15.5324 14.7079 -21.1511 24.1855 -26.334 33.6631L-28.4652 32.5006L-28.4813 32.4844Z" fill="#EBF1FB"/>
<path d="M-28.5459 66.7459C-19.9724 44.8037 -7.7662 24.2177 4.0364 4.30993C25.914 -32.5995 48.5505 -70.7843 48.5505 -118.754C48.5505 -166.723 25.9302 -204.892 4.05257 -241.801C-7.6693 -261.58 -19.7948 -282.036 -28.3521 -303.817L-26.0917 -304.705C-17.599 -283.118 -5.53807 -262.742 6.15151 -243.044C28.1906 -205.844 50.9885 -167.385 50.9885 -118.754C50.9885 -70.1224 28.1906 -31.663 6.1515 5.53702C-5.60267 25.3641 -17.7605 45.8693 -26.2532 67.6178L-28.5136 66.7297L-28.5459 66.7459Z" fill="#EBF1FB"/>
<path d="M-24.5741 128.601C-24.5741 79.9694 -1.77622 41.51 20.2628 4.31C42.1404 -32.5994 64.7769 -70.7843 64.7769 -118.737C64.7769 -166.691 42.1566 -204.875 20.279 -241.785C8.55714 -261.563 -3.56839 -282.02 -12.1257 -303.801L-9.86523 -304.689C-1.37251 -283.102 10.6884 -262.726 22.378 -243.028C44.4171 -205.828 67.215 -167.369 67.215 -118.737C67.215 -70.1062 44.4171 -31.6468 22.378 5.55325C0.500389 42.4626 -22.1361 80.6475 -22.1361 128.601C-22.1361 176.554 0.484238 214.739 22.378 251.648C44.417 288.848 67.2149 327.307 67.2149 375.939L64.7931 375.939C64.7931 327.969 42.1727 289.801 20.279 252.891C-1.76006 215.691 -24.558 177.232 -24.558 128.601L-24.5741 128.601Z" fill="#EBF1FB"/>
<path d="M-8.33135 128.601C-8.33135 79.9694 14.4666 41.51 36.5218 4.31C58.3994 -32.5994 81.0359 -70.7843 81.0359 -118.737C81.0359 -166.691 58.4155 -204.875 36.5218 -241.785C24.7999 -261.563 12.6744 -282.02 4.1171 -303.801L6.37755 -304.689C14.8703 -283.102 26.9473 -262.726 38.6208 -243.028C60.676 -205.828 83.4739 -167.369 83.4739 -118.737C83.4739 -70.1062 60.676 -31.6468 38.6208 5.55325C16.7432 42.4626 -5.8933 80.6475 -5.89331 128.601C-5.89331 176.554 16.727 214.739 38.6208 251.648C60.676 288.848 83.4738 327.307 83.4738 375.939L81.052 375.939C81.052 327.969 58.4317 289.801 36.5379 252.891C14.4827 215.691 -8.31518 177.232 -8.31518 128.601L-8.33135 128.601Z" fill="#EBF1FB"/>
<path d="M7.91123 128.601C7.91123 79.9694 30.7092 41.51 52.7482 4.31C74.6259 -32.5994 97.2623 -70.7843 97.2623 -118.737C97.2623 -166.691 74.642 -204.875 52.7644 -241.785C41.0425 -261.563 28.917 -282.02 20.3597 -303.801L22.6201 -304.689C31.1128 -283.102 43.1738 -262.726 54.8634 -243.028C76.9024 -205.828 99.7003 -167.369 99.7003 -118.737C99.7003 -70.1062 76.9024 -31.6468 54.8633 5.55325C32.9857 42.4626 10.3493 80.6475 10.3493 128.601C10.3493 176.554 32.9696 214.739 54.8633 251.648C76.9024 288.848 99.7003 327.307 99.7003 375.939L97.2784 375.939C97.2784 327.969 74.6581 289.801 52.7643 252.891C30.7253 215.691 7.92739 177.232 7.9274 128.601L7.91123 128.601Z" fill="#EBF1FB"/>
<path d="M24.1704 128.601C24.1704 79.9694 46.9683 41.51 69.0073 4.31C90.885 -32.5994 113.521 -70.7843 113.521 -118.737C113.521 -166.691 90.9011 -204.875 69.0235 -241.785C57.3016 -261.563 45.1761 -282.02 36.6188 -303.801L38.8793 -304.689C47.372 -283.102 59.4329 -262.726 71.1225 -243.028C93.1615 -205.828 115.959 -167.369 115.959 -118.737C115.959 -70.1062 93.1615 -31.6468 71.1224 5.55325C49.2448 42.4626 26.6084 80.6475 26.6084 128.601C26.6084 176.554 49.2287 214.739 71.1224 251.648C93.1615 288.848 115.959 327.307 115.959 375.939L113.538 375.939C113.538 327.969 90.9172 289.801 69.0235 252.891C46.9844 215.691 24.1865 177.232 24.1866 128.601L24.1704 128.601Z" fill="#EBF1FB"/>
<path d="M40.413 128.601C40.413 79.9694 63.2109 41.51 85.25 4.31C107.128 -32.5994 129.748 -70.7843 129.748 -118.737C129.748 -166.691 107.128 -204.875 85.25 -241.785C73.5281 -261.563 61.4026 -282.02 52.8453 -303.801L55.1057 -304.689C63.5984 -283.102 75.6594 -262.726 87.3489 -243.028C109.388 -205.828 132.186 -167.369 132.186 -118.737C132.186 -70.1062 109.388 -31.6468 87.3489 5.55325C65.4713 42.4626 42.851 80.6475 42.851 128.601C42.851 176.554 65.4713 214.739 87.3489 251.648C109.404 288.848 132.186 327.307 132.186 375.939L129.764 375.939C129.764 327.969 107.144 289.801 85.2661 252.891C63.227 215.691 40.4291 177.232 40.4291 128.601L40.413 128.601Z" fill="#EBF1FB"/>
<path d="M56.6556 128.601C56.6556 79.9694 79.4535 41.51 101.493 4.31C123.37 -32.5994 146.007 -70.7843 146.007 -118.737C146.007 -166.691 123.386 -204.875 101.509 -241.785C89.7869 -261.563 77.6613 -282.02 69.1041 -303.801L71.3645 -304.689C79.8572 -283.102 91.9181 -262.726 103.608 -243.028C125.647 -205.828 148.445 -167.369 148.445 -118.737C148.445 -70.1062 125.647 -31.6468 103.608 5.55325C81.7301 42.4626 59.0937 80.6475 59.0937 128.601C59.0937 176.554 81.7139 214.739 103.608 251.648C125.647 288.848 148.445 327.307 148.445 375.939L146.023 375.939C146.023 327.969 123.402 289.801 101.509 252.891C79.4697 215.691 56.6718 177.232 56.6718 128.601L56.6556 128.601Z" fill="#EBF1FB"/>
<path d="M72.8982 128.601C72.8982 79.9694 95.6961 41.51 117.735 4.31C139.613 -32.5994 162.233 -70.7843 162.233 -118.737C162.233 -166.691 139.613 -204.875 117.735 -241.785C106.013 -261.563 93.8878 -282.02 85.3305 -303.801L87.5909 -304.689C96.0836 -283.102 108.145 -262.726 119.834 -243.028C141.873 -205.828 164.671 -167.369 164.671 -118.737C164.671 -70.1062 141.873 -31.6468 119.834 5.55325C97.9565 42.4626 75.3362 80.6475 75.3362 128.601C75.3362 176.554 97.9565 214.739 119.834 251.648C141.889 288.848 164.671 327.307 164.671 375.939L162.249 375.939C162.249 327.969 139.629 289.801 117.751 252.891C95.7123 215.691 72.9144 177.232 72.9144 128.601L72.8982 128.601Z" fill="#EBF1FB"/>
<path d="M89.1411 128.601C89.1411 79.9694 111.939 41.51 133.978 4.31C155.856 -32.5994 178.476 -70.7843 178.476 -118.737C178.476 -166.691 155.856 -204.875 133.978 -241.785C122.256 -261.563 110.131 -282.02 101.573 -303.801L103.834 -304.689C112.327 -283.102 124.387 -262.726 136.077 -243.028C158.116 -205.828 180.914 -167.369 180.914 -118.737C180.914 -70.1062 158.116 -31.6468 136.077 5.55325C114.199 42.4626 91.563 80.6475 91.563 128.601C91.563 176.554 114.183 214.739 136.077 251.648C158.116 288.848 180.914 327.307 180.914 375.939L178.492 375.939C178.492 327.969 155.872 289.801 133.994 252.891C111.955 215.691 89.1573 177.232 89.1573 128.601L89.1411 128.601Z" fill="#EBF1FB"/>
<path d="M105.384 128.601C105.384 79.9694 128.182 41.51 150.221 4.31C172.098 -32.5994 194.719 -70.7843 194.719 -118.737C194.719 -166.691 172.098 -204.875 150.221 -241.785C138.499 -261.563 126.373 -282.02 117.816 -303.801L120.077 -304.689C128.569 -283.102 140.63 -262.726 152.32 -243.028C174.359 -205.828 197.157 -167.369 197.157 -118.737C197.157 -70.1062 174.359 -31.6468 152.32 5.55325C130.442 42.4626 107.806 80.6475 107.806 128.601C107.806 176.554 130.426 214.739 152.32 251.648C174.359 288.848 197.157 327.307 197.157 375.939L194.735 375.939C194.735 327.969 172.115 289.801 150.237 252.891C128.198 215.691 105.4 177.232 105.4 128.601L105.384 128.601Z" fill="#EBF1FB"/>
<path d="M121.643 128.601C121.643 79.9694 144.441 41.51 166.48 4.31C188.357 -32.5994 210.978 -70.7843 210.978 -118.737C210.978 -166.691 188.357 -204.875 166.48 -241.785C154.758 -261.563 142.632 -282.02 134.075 -303.801L136.335 -304.689C144.828 -283.102 156.905 -262.726 168.579 -243.028C190.618 -205.828 213.416 -167.369 213.416 -118.737C213.416 -70.1062 190.618 -31.6468 168.579 5.55325C146.701 42.4626 124.081 80.6475 124.081 128.601C124.081 176.554 146.701 214.739 168.579 251.648C190.634 288.848 213.416 327.307 213.416 375.939L210.994 375.939C210.994 327.969 188.373 289.801 166.496 252.891C144.441 215.691 121.659 177.232 121.659 128.601L121.643 128.601Z" fill="#EBF1FB"/>
<path d="M137.885 128.601C137.885 79.9694 160.683 41.51 182.722 4.31C204.6 -32.5994 227.236 -70.7843 227.236 -118.737C227.236 -166.691 204.616 -204.875 182.739 -241.785C171.017 -261.563 158.891 -282.02 150.334 -303.801L152.594 -304.689C161.087 -283.102 173.164 -262.726 184.837 -243.028C206.877 -205.828 229.674 -167.369 229.674 -118.737C229.674 -70.1062 206.877 -31.6468 184.837 5.55325C162.96 42.4626 140.323 80.6475 140.323 128.601C140.323 176.554 162.944 214.739 184.837 251.648C206.876 288.848 229.674 327.307 229.674 375.939L227.253 375.939C227.253 327.969 204.632 289.801 182.738 252.891C160.699 215.691 137.901 177.232 137.902 128.601L137.885 128.601Z" fill="#EBF1FB"/>
<path d="M154.128 128.601C154.128 79.9694 176.926 41.51 198.965 4.31C220.843 -32.5994 243.463 -70.7843 243.463 -118.737C243.463 -166.691 220.843 -204.875 198.965 -241.785C187.243 -261.563 175.118 -282.02 166.56 -303.801L168.821 -304.689C177.314 -283.102 189.375 -262.726 201.064 -243.028C223.103 -205.828 245.901 -167.369 245.901 -118.737C245.901 -70.1062 223.103 -31.6468 201.064 5.55325C179.187 42.4626 156.566 80.6475 156.566 128.601C156.566 176.554 179.187 214.739 201.064 251.648C223.103 288.848 245.901 327.307 245.901 375.939L243.479 375.939C243.479 327.969 220.859 289.801 198.981 252.891C176.942 215.691 154.144 177.232 154.144 128.601L154.128 128.601Z" fill="#EBF1FB"/>
<path d="M170.371 128.601C170.371 79.9694 193.169 41.51 215.208 4.31C237.085 -32.5994 259.722 -70.7843 259.722 -118.737C259.722 -166.691 237.102 -204.875 215.224 -241.785C203.502 -261.563 191.377 -282.02 182.819 -303.801L185.08 -304.689C193.572 -283.102 205.65 -262.726 217.323 -243.028C239.362 -205.828 262.16 -167.369 262.16 -118.737C262.16 -70.1062 239.362 -31.6468 217.323 5.55325C195.445 42.4626 172.825 80.6475 172.825 128.601C172.825 176.554 195.445 214.739 217.323 251.648C239.378 288.848 262.16 327.307 262.16 375.939L259.738 375.939C259.738 327.969 237.118 289.801 215.224 252.891C193.169 215.691 170.387 177.232 170.387 128.601L170.371 128.601Z" fill="#EBF1FB"/>
<path d="M186.613 128.601C186.613 79.9694 209.411 41.51 231.45 4.31C253.328 -32.5994 275.948 -70.7843 275.948 -118.737C275.948 -166.691 253.328 -204.875 231.45 -241.785C219.729 -261.563 207.603 -282.02 199.046 -303.801L201.306 -304.689C209.799 -283.102 221.86 -262.726 233.549 -243.028C255.588 -205.828 278.386 -167.369 278.386 -118.737C278.386 -70.1062 255.588 -31.6468 233.549 5.55325C211.672 42.4626 189.051 80.6475 189.051 128.601C189.051 176.554 211.672 214.739 233.549 251.648C255.605 288.848 278.386 327.307 278.386 375.939L275.964 375.939C275.964 327.969 253.344 289.801 231.467 252.891C209.411 215.691 186.63 177.232 186.63 128.601L186.613 128.601Z" fill="#EBF1FB"/>
<path d="M202.856 128.601C202.856 79.9694 225.654 41.51 247.693 4.31C269.571 -32.5994 292.207 -70.7843 292.207 -118.737C292.207 -166.691 269.587 -204.875 247.693 -241.785C235.971 -261.563 223.846 -282.02 215.288 -303.801L217.549 -304.689C226.042 -283.102 238.102 -262.726 249.792 -243.028C271.847 -205.828 294.629 -167.369 294.629 -118.737C294.629 -70.1062 271.831 -31.6468 249.792 5.55325C227.914 42.4626 205.294 80.6475 205.294 128.601C205.294 176.554 227.914 214.739 249.792 251.648C271.847 288.848 294.629 327.307 294.629 375.939L292.207 375.939C292.207 327.969 269.587 289.801 247.693 252.891C225.638 215.691 202.856 177.232 202.856 128.601Z" fill="#EBF1FB"/>
<path d="M219.115 128.601C219.115 79.9694 241.913 41.51 263.952 4.31C285.83 -32.5994 308.45 -70.7843 308.45 -118.737C308.45 -166.691 285.83 -204.875 263.952 -241.785C252.23 -261.563 240.105 -282.02 231.548 -303.801L233.808 -304.689C242.301 -283.102 254.362 -262.726 266.051 -243.028C288.09 -205.828 310.888 -167.369 310.888 -118.737C310.888 -70.1062 288.09 -31.6468 266.051 5.55325C244.174 42.4626 221.553 80.6475 221.553 128.601C221.553 176.554 244.174 214.739 266.051 251.648C288.09 288.848 310.888 327.307 310.888 375.939L308.466 375.939C308.466 327.969 285.846 289.801 263.968 252.891C241.929 215.691 219.131 177.232 219.131 128.601L219.115 128.601Z" fill="#EBF1FB"/>
<path d="M235.358 128.601C235.358 79.9694 258.156 41.51 280.195 4.31C302.072 -32.5994 324.693 -70.7843 324.693 -118.737C324.693 -166.691 302.072 -204.875 280.195 -241.785C268.473 -261.563 256.347 -282.02 247.79 -303.801L250.05 -304.689C258.543 -283.102 270.62 -262.726 282.294 -243.028C304.333 -205.828 327.131 -167.369 327.131 -118.737C327.131 -70.1062 304.333 -31.6468 282.294 5.55325C260.416 42.4626 237.796 80.6475 237.796 128.601C237.796 176.554 260.416 214.739 282.294 251.648C304.349 288.848 327.131 327.307 327.131 375.939L324.709 375.939C324.709 327.969 302.088 289.801 280.211 252.891C258.156 215.691 235.374 177.232 235.374 128.601L235.358 128.601Z" fill="#EBF1FB"/>
<path d="M251.601 128.601C251.601 79.9694 274.399 41.51 296.438 4.31C318.315 -32.5994 340.936 -70.7843 340.936 -118.737C340.936 -166.691 318.315 -204.875 296.438 -241.785C284.716 -261.563 272.59 -282.02 264.033 -303.801L266.294 -304.689C274.786 -283.102 286.847 -262.726 298.537 -243.028C320.576 -205.828 343.374 -167.369 343.374 -118.737C343.374 -70.1062 320.576 -31.6468 298.537 5.55325C276.659 42.4626 254.039 80.6475 254.039 128.601C254.039 176.554 276.659 214.739 298.537 251.648C320.592 288.848 343.374 327.307 343.374 375.939L340.952 375.939C340.952 327.969 318.332 289.801 296.454 252.891C274.399 215.691 251.617 177.232 251.617 128.601L251.601 128.601Z" fill="#EBF1FB"/>
<path d="M267.843 128.601C267.843 79.9694 290.641 41.51 312.68 4.31C334.558 -32.5994 357.178 -70.7843 357.178 -118.737C357.178 -166.691 334.558 -204.875 312.68 -241.785C300.958 -261.563 288.833 -282.02 280.275 -303.801L282.536 -304.689C291.028 -283.102 303.089 -262.726 314.779 -243.028C336.818 -205.828 359.616 -167.369 359.616 -118.737C359.616 -70.1062 336.818 -31.6468 314.779 5.55325C292.901 42.4626 270.265 80.6475 270.265 128.601C270.265 176.554 292.885 214.739 314.779 251.648C336.834 288.848 359.616 327.307 359.616 375.939L357.194 375.939C357.194 327.969 334.574 289.801 312.696 252.891C290.641 215.691 267.859 177.232 267.859 128.601L267.843 128.601Z" fill="#EBF1FB"/>
<path d="M284.086 128.601C284.086 79.9694 306.884 41.51 328.923 4.31C350.8 -32.5994 373.421 -70.7843 373.421 -118.737C373.421 -166.691 350.8 -204.875 328.923 -241.785C317.201 -261.563 305.075 -282.02 296.518 -303.801L298.778 -304.689C307.271 -283.102 319.332 -262.726 331.022 -243.028C353.061 -205.828 375.859 -167.369 375.859 -118.737C375.859 -70.1062 353.061 -31.6468 331.022 5.55325C309.144 42.4626 286.508 80.6475 286.508 128.601C286.508 176.554 309.128 214.739 331.022 251.648C353.061 288.848 375.859 327.307 375.859 375.939L373.437 375.939C373.437 327.969 350.816 289.801 328.939 252.891C306.9 215.691 284.102 177.232 284.102 128.601L284.086 128.601Z" fill="#EBF1FB"/>
<path d="M300.345 128.601C300.345 79.9694 323.143 41.51 345.182 4.31C367.06 -32.5994 389.68 -70.7843 389.68 -118.737C389.68 -166.691 367.06 -204.875 345.182 -241.785C333.46 -261.563 321.335 -282.02 312.777 -303.801L315.038 -304.689C323.53 -283.102 335.591 -262.726 347.281 -243.028C369.32 -205.828 392.118 -167.369 392.118 -118.737C392.118 -70.1062 369.32 -31.6468 347.281 5.55325C325.403 42.4626 302.767 80.6475 302.767 128.601C302.767 176.554 325.387 214.739 347.281 251.648C369.32 288.848 392.118 327.307 392.118 375.939L389.696 375.939C389.696 327.969 367.076 289.801 345.198 252.891C323.159 215.691 300.361 177.232 300.361 128.601L300.345 128.601Z" fill="#EBF1FB"/>
<path d="M316.588 128.601C316.588 79.9694 339.386 41.51 361.425 4.31C383.302 -32.5994 405.923 -70.7843 405.923 -118.737C405.923 -166.691 383.302 -204.875 361.425 -241.785C349.703 -261.563 337.577 -282.02 329.02 -303.801L331.28 -304.689C339.773 -283.102 351.834 -262.726 363.524 -243.028C385.563 -205.828 408.361 -167.369 408.361 -118.737C408.361 -70.1062 385.563 -31.6468 363.524 5.55325C341.646 42.4626 319.026 80.6475 319.026 128.601C319.026 176.554 341.646 214.739 363.524 251.648C385.579 288.848 408.361 327.307 408.361 375.939L405.939 375.939C405.939 327.969 383.318 289.801 361.441 252.891C339.386 215.691 316.604 177.232 316.604 128.601L316.588 128.601Z" fill="#EBF1FB"/>
<path d="M332.83 128.601C332.83 79.9694 355.628 41.51 377.667 4.31C399.545 -32.5994 422.165 -70.7843 422.165 -118.737C422.165 -166.691 399.545 -204.875 377.667 -241.785C365.945 -261.563 353.82 -282.02 345.262 -303.801L347.523 -304.689C356.016 -283.102 368.093 -262.726 379.766 -243.028C401.805 -205.828 424.603 -167.369 424.603 -118.737C424.603 -70.1062 401.805 -31.6468 379.766 5.55325C357.888 42.4626 335.268 80.6475 335.268 128.601C335.268 176.554 357.888 214.739 379.766 251.648C401.805 288.848 424.603 327.307 424.603 375.939L422.181 375.939C422.181 327.969 399.561 289.801 377.683 252.891C355.644 215.691 332.846 177.232 332.846 128.601L332.83 128.601Z" fill="#EBF1FB"/>
<path d="M349.073 128.601C349.073 79.9694 371.871 41.51 393.91 4.31C415.788 -32.5994 438.408 -70.7843 438.408 -118.737C438.408 -166.691 415.788 -204.875 393.91 -241.785C382.188 -261.563 370.063 -282.02 361.505 -303.801L363.766 -304.689C372.258 -283.102 384.319 -262.726 396.009 -243.028C418.048 -205.828 440.846 -167.369 440.846 -118.737C440.846 -70.1062 418.048 -31.6468 396.009 5.55325C374.131 42.4626 351.511 80.6475 351.511 128.601C351.511 176.554 374.131 214.739 396.009 251.648C418.064 288.848 440.846 327.307 440.846 375.939L438.424 375.939C438.424 327.969 415.804 289.801 393.926 252.891C371.871 215.691 349.089 177.232 349.089 128.601L349.073 128.601Z" fill="#EBF1FB"/>
<path d="M365.315 128.601C365.315 79.9694 388.113 41.51 410.152 4.31C432.03 -32.5994 454.65 -70.7843 454.65 -118.737C454.65 -166.691 432.03 -204.875 410.152 -241.785C398.431 -261.563 386.305 -282.02 377.748 -303.801L380.008 -304.689C388.501 -283.102 400.562 -262.726 412.251 -243.028C434.29 -205.828 457.088 -167.369 457.088 -118.737C457.088 -70.1062 434.29 -31.6468 412.251 5.55325C390.374 42.4626 367.753 80.6475 367.753 128.601C367.753 176.554 390.374 214.739 412.251 251.648C434.29 288.848 457.088 327.307 457.088 375.939L454.666 375.939C454.666 327.969 432.046 289.801 410.169 252.891C388.13 215.691 365.332 177.232 365.332 128.601L365.315 128.601Z" fill="#EBF1FB"/>
<path d="M381.558 128.601C381.558 79.9694 404.356 41.51 426.395 4.31C448.273 -32.5994 470.909 -70.7843 470.909 -118.737C470.909 -166.691 448.289 -204.875 426.411 -241.785C414.69 -261.563 402.564 -282.02 394.007 -303.801L396.267 -304.689C404.76 -283.102 416.821 -262.726 428.51 -243.028C450.549 -205.828 473.347 -167.369 473.347 -118.737C473.347 -70.1062 450.549 -31.6468 428.51 5.55325C406.633 42.4626 383.996 80.6475 383.996 128.601C383.996 176.554 406.617 214.739 428.51 251.648C450.549 288.848 473.347 327.307 473.347 375.939L470.926 375.939C470.926 327.969 448.305 289.801 426.411 252.891C404.372 215.691 381.574 177.232 381.574 128.601L381.558 128.601Z" fill="#EBF1FB"/>
<path d="M397.817 128.601C397.817 79.9694 420.615 41.51 442.654 4.31C464.532 -32.5994 487.152 -70.7843 487.152 -118.737C487.152 -166.691 464.532 -204.875 442.654 -241.785C430.932 -261.563 418.807 -282.02 410.249 -303.801L412.51 -304.689C421.003 -283.102 433.08 -262.726 444.753 -243.028C466.792 -205.844 489.59 -167.385 489.59 -118.754C489.59 -70.1223 466.792 -31.6629 444.753 5.53708C422.875 42.4465 400.255 80.6313 400.255 128.584C400.255 176.538 422.875 214.722 444.753 251.632C466.808 288.832 489.59 327.291 489.59 375.922L487.168 375.922C487.168 327.953 464.548 289.784 442.67 252.875C420.615 215.675 397.833 177.216 397.833 128.584L397.817 128.601Z" fill="#EBF1FB"/>
<path d="M414.06 128.6C414.06 79.9691 436.858 41.5097 458.913 4.30973C470.667 -15.5174 482.825 -36.0226 491.318 -57.771L493.578 -56.883C485.005 -34.9408 472.798 -14.3548 460.996 5.55297C439.118 42.4785 416.482 80.6472 416.482 128.617C416.482 176.586 439.102 214.755 460.98 251.664C472.782 271.572 484.989 292.174 493.562 314.1L491.302 314.988C482.809 293.239 470.651 272.734 458.897 252.891C436.842 215.691 414.06 177.232 414.06 128.6Z" fill="#EBF1FB"/>
<path d="M430.303 128.6C430.303 79.9692 453.101 41.5099 475.156 4.30986C480.581 -4.84483 486.2 -14.3224 491.382 -23.8L493.514 -22.6375C488.315 -13.1277 482.696 -3.6339 477.255 5.53693C455.377 42.4463 432.741 80.6312 432.741 128.6C432.741 176.57 455.361 214.739 477.255 251.664C482.696 260.851 488.315 270.329 493.514 279.839L491.382 281.001C486.2 271.54 480.581 262.062 475.156 252.891C453.101 215.691 430.303 177.232 430.303 128.6Z" fill="#EBF1FB"/>
<path d="M446.545 128.601C446.545 79.9694 469.343 41.5101 491.398 4.31006L493.481 5.53713C471.604 42.4627 448.967 80.6314 448.967 128.601C448.967 176.57 471.587 214.723 493.465 251.648L491.382 252.891C469.327 215.691 446.529 177.232 446.529 128.601L446.545 128.601Z" fill="#EBF1FB"/>
<path d="M462.788 128.601C462.788 89.9474 477.239 58.3177 491.366 32.4844L493.498 33.6469C479.515 59.2057 465.21 90.4964 465.21 128.601C465.21 166.705 479.515 197.979 493.498 223.554L491.366 224.717C477.239 198.883 462.788 167.254 462.788 128.601Z" fill="#EBF1FB"/>
</svg>
