<svg width="423" height="333" viewBox="0 0 423 333" fill="none" xmlns="http://www.w3.org/2000/svg">
<path d="M378.251 554.296C328.462 487.111 267.645 423.206 196.154 366.043C-117.368 116.316 -578.468 57.4331 -1033.41 -15.3284L-1038.09 -9.81863C-679.409 50.4564 -329.757 96.4606 -47.0473 234.355C129.457 320.378 266.632 440.081 365.429 569.388L378.251 554.296Z" fill="#CF1F5F"/>
<path d="M-1033.36 9.18761C-741.529 74.2614 -453.192 129.218 -200.713 234.142C21.9702 327.088 197.343 463.432 325.674 616.182L370.246 563.719C172.067 335.543 -151.718 165.639 -549.823 79.982C-709.801 45.8089 -873.731 17.9032 -1036.26 -11.9746L-1045.42 -1.19463L-1033.29 9.10774L-1033.36 9.18761Z" fill="#E0E4F4"/>
<path d="M-95.3923 92.2279C-39.7801 109.228 14.2517 128.734 66.2043 151.012C17.2838 128.561 -36.8038 109.281 -95.3923 92.2279Z" fill="#E0E4F4"/>
<path d="M422.076 502.712C249.865 300.722 -26.7488 141.747 -376.642 68.8647C-585.954 25.5004 -805.923 1.95501 -1024.93 -25.3099L-1031.85 -17.165C-803.772 17.5314 -575.698 48.513 -361.616 103.079C-33.4329 186.801 221.053 351.45 382.309 549.358L421.928 502.724L422.076 502.712Z" fill="#CF1F5F"/>
<path d="M-541.333 23.2628C-326.601 55.5584 -120.31 104.743 59.3884 197.191C-12.2414 156.684 -90.3876 122.877 -175.211 98.3843C-292.499 64.7323 -415.268 41.4107 -541.333 23.2628Z" fill="#E0E4F4"/>
<path d="M418.141 507.343C333.238 387.228 215.271 279.031 69.5288 202.232C66.1939 200.499 62.791 198.845 59.456 197.112C206.449 280.198 325.565 391.571 416.513 509.26L418.209 507.264L418.141 507.343Z" fill="#E0E4F4"/>
<path d="M433.677 489.057L473.16 442.583C387.597 330.844 267.985 226.199 103.252 149.765C-133.227 40.5605 -443.398 16.9621 -777.28 -4.92008C-419.75 28.254 -87.1179 73.2725 154.63 233.836C271.516 303.855 364.197 394.281 433.745 488.977L433.677 489.057Z" fill="#112655"/>
</svg>
