<svg width="1792" height="904" viewBox="0 0 1792 904" fill="none" xmlns="http://www.w3.org/2000/svg">
<path d="M2847.31 591.092C2629.06 500.365 2388.81 433.593 2132.47 398.664C1009.64 247.81 -194.261 773.997 -1403.36 1257.58L-1406.72 1277.74C-449.23 903.53 465.649 507.805 1351.48 432.099C1904.42 384.667 2410.84 475.997 2838.1 646.304L2847.31 591.092Z" fill="white"/>
<path d="M-1367.66 1316.98C-565.372 1051.4 213.769 766.357 978.429 654.539C1653.44 556.898 2276.65 633.171 2809.56 817.488L2841.56 625.563C2029.79 359.629 997.883 417.288 -92.0617 787.131C-529.694 936.353 -967.816 1106.51 -1405.4 1269.85L-1411.98 1309.29L-1367.61 1316.68L-1367.66 1316.98Z" fill="white"/>
<path d="M1027.99 157.494C1187.55 118.041 1346.92 86.9619 1505.26 65.6201C1354.02 82.1412 1194.85 113.853 1027.99 157.494Z" fill="white"/>
<path d="M-1383.1 1136.06L-1388.99 1171.41C-459.022 721.152 349.178 335.565 1027.99 157.494C235.007 352.862 -570.471 749.11 -1383.1 1136.06Z" fill="white"/>
<path d="M2878.77 402.381C2167.97 162.288 1266.35 178.014 311.884 508.893C-258.751 707.401 -826.479 969.444 -1397.27 1221.07L-1402.24 1250.86C-798.661 1004.11 -200.482 748.34 397.973 570.082C1315.5 296.998 2171.69 327.14 2849.99 573.224L2878.43 402.624L2878.77 402.381Z" fill="white"/>
<path d="M-153.763 637.232C413.959 404.012 985.709 224.005 1555.73 187.525C1323.21 193.198 1084.6 224.578 843.316 288.237C509.988 376.785 178.357 498.343 -153.763 637.232Z" fill="white"/>
<path d="M2875.94 419.324C2495.72 251.154 2052.59 159.866 1587.64 185.039C1577.04 185.673 1566.38 186.599 1555.78 187.233C2032.88 175.497 2483.41 272.821 2874.77 426.335L2875.99 419.032L2875.94 419.324Z" fill="white"/>
<path d="M2887.09 352.428L2915.44 182.412C2545.77 35.5164 2103.8 -44.7682 1593.32 8.84231C861.255 87.0635 74.6514 479.853 -766.976 911.208C148.397 472.932 1020.56 99.5098 1839.92 138.224C2225.04 138.474 2581.05 223.345 2887.14 352.135L2887.09 352.428Z" fill="white"/>
</svg>
