<svg width="872" height="95" viewBox="0 0 872 95" fill="none" xmlns="http://www.w3.org/2000/svg">
<g opacity="0.65">
<path d="M1443.41 66.3774C1369.49 35.6462 1288.11 13.0294 1201.28 1.19825C820.957 -49.8991 413.174 128.331 3.62952 292.131L2.49134 298.958C326.811 172.206 636.698 38.1665 936.744 12.5233C1124.04 -3.54275 1295.57 27.3923 1440.29 85.0786L1443.41 66.3774Z" fill="white"/>
<path d="M15.7196 312.249C287.471 222.294 551.381 125.743 810.386 87.8681C1039.02 54.7953 1250.12 80.6302 1430.63 143.062L1441.46 78.0533C1166.5 -12.0237 816.976 7.50664 447.79 132.779C299.556 183.324 151.156 240.96 2.93667 296.287L0.7098 309.645L15.7361 312.15L15.7196 312.249Z" fill="white"/>
<path d="M6.69793 273.727L4.27312 288.272C160.915 216.552 296.779 146.351 412.949 96.7668C276.544 152.538 141.127 213.965 6.69793 273.727Z" fill="white"/>
<path d="M10.4923 250.968L8.49633 262.941C323.495 110.431 597.248 -20.1745 827.176 -80.4907C558.576 -14.316 285.745 119.901 10.4923 250.968Z" fill="white"/>
<path d="M1454.07 2.45703C1213.31 -78.867 907.91 -73.5402 584.615 38.5348C391.33 105.773 199.03 194.532 5.69208 279.762L4.00956 289.855C208.452 206.273 411.067 119.64 613.775 59.2609C924.561 -33.238 1214.57 -23.0285 1444.32 60.3251L1453.95 2.53952L1454.07 2.45703Z" fill="white"/>
<path d="M6.79717 273.133C148.147 207.203 287.652 140.152 426.892 82.0058C285.971 139.872 145.692 207.302 6.94562 272.242L6.81366 273.034L6.79717 273.133Z" fill="white"/>
<path d="M426.892 82.0059C619.19 3.00951 812.853 -57.9623 1005.93 -70.3185C927.171 -68.397 846.35 -57.768 764.622 -36.2054C651.717 -6.2125 539.387 34.9613 426.892 82.0059Z" fill="white"/>
<path d="M1456.89 -14.463L1466.49 -72.0507C1341.27 -121.807 1191.57 -149.001 1018.66 -130.842C770.698 -104.347 504.26 28.6984 219.185 174.807C529.239 26.354 824.658 -100.131 1102.19 -87.0179C1232.64 -86.9332 1353.22 -58.1859 1456.9 -14.562L1456.89 -14.463Z" fill="white"/>
</g>
</svg>
